G04 #@! TF.FileFunction,Soldermask,Top*
%FSLAX46Y46*%
G04 Gerber Fmt 4.6, Leading zero omitted, Abs format (unit mm)*
G04 Created by KiCad (PCBNEW 4.0.7+dfsg1-1) date Wed Jan 17 01:01:51 2018*
%MOMM*%
%LPD*%
G01*
G04 APERTURE LIST*
%ADD10C,0.100000*%
%ADD11C,1.598880*%
%ADD12R,1.850000X0.850000*%
%ADD13C,3.346400*%
%ADD14R,1.150000X1.200000*%
G04 APERTURE END LIST*
D10*
G36*
X84790938Y-82683318D02*
X86060148Y-84355441D01*
X84786592Y-85322122D01*
X83517382Y-83649999D01*
X84790938Y-82683318D01*
X84790938Y-82683318D01*
G37*
D11*
X83347783Y-85410585D02*
X83045253Y-85012017D01*
X81753512Y-86620702D02*
X81450982Y-86222134D01*
X80161265Y-87829284D02*
X79858735Y-87430716D01*
X78569018Y-89037866D02*
X78266488Y-88639298D01*
X76974747Y-90247983D02*
X76672217Y-89849415D01*
X75382500Y-91456564D02*
X75079970Y-91057996D01*
D12*
X86550000Y-94550000D03*
X86550000Y-95200000D03*
X86550000Y-95850000D03*
X86550000Y-96500000D03*
X86550000Y-97150000D03*
X86550000Y-97800000D03*
X86550000Y-98450000D03*
X92450000Y-98450000D03*
X92450000Y-97800000D03*
X92450000Y-97150000D03*
X92450000Y-96500000D03*
X92450000Y-95850000D03*
X92450000Y-95200000D03*
X92450000Y-94550000D03*
D13*
X102000000Y-96520000D03*
X89500000Y-87000000D03*
X89500000Y-106000000D03*
X77000000Y-96500000D03*
D14*
X95504000Y-95782000D03*
X95504000Y-97282000D03*
X97599500Y-95782000D03*
X97599500Y-97282000D03*
M02*
