G04 #@! TF.FileFunction,Copper,L2,Bot,Signal*
%FSLAX46Y46*%
G04 Gerber Fmt 4.6, Leading zero omitted, Abs format (unit mm)*
G04 Created by KiCad (PCBNEW 4.0.7+dfsg1-1) date Wed Jan 17 01:01:51 2018*
%MOMM*%
%LPD*%
G01*
G04 APERTURE LIST*
%ADD10C,0.100000*%
%ADD11C,1.198880*%
%ADD12C,2.946400*%
%ADD13C,0.800000*%
%ADD14C,0.300000*%
G04 APERTURE END LIST*
D10*
G36*
X84752551Y-82963543D02*
X85779922Y-84317055D01*
X84824979Y-85041897D01*
X83797608Y-83688385D01*
X84752551Y-82963543D01*
X84752551Y-82963543D01*
G37*
D11*
X83347783Y-85410585D02*
X83045253Y-85012017D01*
X81753512Y-86620702D02*
X81450982Y-86222134D01*
X80161265Y-87829284D02*
X79858735Y-87430716D01*
X78569018Y-89037866D02*
X78266488Y-88639298D01*
X76974747Y-90247983D02*
X76672217Y-89849415D01*
X75382500Y-91456564D02*
X75079970Y-91057996D01*
D12*
X102000000Y-96520000D03*
X89500000Y-87000000D03*
X89500000Y-106000000D03*
X77000000Y-96500000D03*
D13*
X90170000Y-96520000D03*
X96520000Y-98425000D03*
X82550000Y-97790000D03*
D14*
X83287018Y-85335407D02*
X83287018Y-85827018D01*
X83287018Y-85827018D02*
X90170000Y-92710000D01*
X90170000Y-92710000D02*
X90170000Y-96520000D01*
X82838781Y-84801219D02*
X82838781Y-85378781D01*
X92710000Y-94615000D02*
X96520000Y-98425000D01*
X76732982Y-89924593D02*
X76732982Y-90010544D01*
X76732982Y-90010544D02*
X77181219Y-90458781D01*
X77181219Y-92421219D02*
X82550000Y-97790000D01*
X77181219Y-90458781D02*
X77181219Y-92421219D01*
M02*
