G04 #@! TF.FileFunction,Copper,L1,Top,Signal*
%FSLAX46Y46*%
G04 Gerber Fmt 4.6, Leading zero omitted, Abs format (unit mm)*
G04 Created by KiCad (PCBNEW 4.0.7+dfsg1-1) date Wed Jan 17 01:01:51 2018*
%MOMM*%
%LPD*%
G01*
G04 APERTURE LIST*
%ADD10C,0.100000*%
%ADD11C,1.198880*%
%ADD12R,1.450000X0.450000*%
%ADD13C,2.946400*%
%ADD14R,0.750000X0.800000*%
%ADD15C,0.800000*%
%ADD16C,0.250000*%
%ADD17C,0.300000*%
G04 APERTURE END LIST*
D10*
G36*
X84752551Y-82963543D02*
X85779922Y-84317055D01*
X84824979Y-85041897D01*
X83797608Y-83688385D01*
X84752551Y-82963543D01*
X84752551Y-82963543D01*
G37*
D11*
X83347783Y-85410585D02*
X83045253Y-85012017D01*
X81753512Y-86620702D02*
X81450982Y-86222134D01*
X80161265Y-87829284D02*
X79858735Y-87430716D01*
X78569018Y-89037866D02*
X78266488Y-88639298D01*
X76974747Y-90247983D02*
X76672217Y-89849415D01*
X75382500Y-91456564D02*
X75079970Y-91057996D01*
D12*
X86550000Y-94550000D03*
X86550000Y-95200000D03*
X86550000Y-95850000D03*
X86550000Y-96500000D03*
X86550000Y-97150000D03*
X86550000Y-97800000D03*
X86550000Y-98450000D03*
X92450000Y-98450000D03*
X92450000Y-97800000D03*
X92450000Y-97150000D03*
X92450000Y-96500000D03*
X92450000Y-95850000D03*
X92450000Y-95200000D03*
X92450000Y-94550000D03*
D13*
X102000000Y-96520000D03*
X89500000Y-87000000D03*
X89500000Y-106000000D03*
X77000000Y-96500000D03*
D14*
X95504000Y-95782000D03*
X95504000Y-97282000D03*
X97599500Y-95782000D03*
X97599500Y-97282000D03*
D15*
X90170000Y-96520000D03*
X96520000Y-98425000D03*
X82550000Y-97790000D03*
D16*
X87762000Y-97150000D02*
X89712000Y-95200000D01*
X89712000Y-95200000D02*
X92450000Y-95200000D01*
X86550000Y-97150000D02*
X87762000Y-97150000D01*
D17*
X97790000Y-95770000D02*
X94730000Y-92710000D01*
X94730000Y-92710000D02*
X90170000Y-92710000D01*
X90170000Y-92710000D02*
X87630000Y-90170000D01*
X87630000Y-90170000D02*
X85334037Y-90170000D01*
X85334037Y-90170000D02*
X81647469Y-86483432D01*
X95250000Y-95520000D02*
X94950000Y-95220000D01*
X94950000Y-95220000D02*
X92485000Y-95220000D01*
X97790000Y-95520000D02*
X95250000Y-95520000D01*
X90170000Y-96520000D02*
X91780000Y-96520000D01*
X91780000Y-96520000D02*
X92450000Y-95850000D01*
X96520000Y-98425000D02*
X96885000Y-98425000D01*
X96885000Y-98425000D02*
X97790000Y-97520000D01*
X95250000Y-97520000D02*
X97790000Y-97520000D01*
X94615000Y-97625000D02*
X95145000Y-97625000D01*
X95145000Y-97625000D02*
X95250000Y-97520000D01*
X92485000Y-96520000D02*
X93510000Y-96520000D01*
X93510000Y-96520000D02*
X94615000Y-97625000D01*
X92485000Y-96520000D02*
X92485000Y-95870000D01*
X88265000Y-94615000D02*
X88265000Y-93345000D01*
X88265000Y-93345000D02*
X87630000Y-92710000D01*
X87680000Y-95200000D02*
X88265000Y-94615000D01*
X86550000Y-95200000D02*
X87680000Y-95200000D01*
X85090000Y-92710000D02*
X87630000Y-92710000D01*
X83820000Y-91440000D02*
X85090000Y-92710000D01*
X80010000Y-87630000D02*
X83820000Y-91440000D01*
X86600000Y-95250000D02*
X86550000Y-95200000D01*
X78883492Y-89043492D02*
X84390000Y-94550000D01*
X84390000Y-94550000D02*
X86550000Y-94550000D01*
X78596508Y-89043492D02*
X78883492Y-89043492D01*
X86585000Y-94570000D02*
X87085000Y-94570000D01*
X82550000Y-97790000D02*
X83840000Y-96500000D01*
X83840000Y-96500000D02*
X86550000Y-96500000D01*
X75767727Y-91872273D02*
X75767727Y-91743373D01*
X75767727Y-91743373D02*
X75095514Y-91071160D01*
X75767727Y-91872273D02*
X76632273Y-91872273D01*
X76632273Y-91872273D02*
X80610000Y-95850000D01*
X80610000Y-95850000D02*
X86550000Y-95850000D01*
M02*
